<svg width="47" height="48" viewBox="0 0 47 48" fill="none" xmlns="http://www.w3.org/2000/svg">
<rect width="47" height="48" rx="13" fill="#7059FF"/>
<path d="M19.8767 17.1996C19.9557 17.1996 20.0339 17.1838 20.1068 17.1532C20.1797 17.1225 20.2458 17.0776 20.3013 17.0209C20.3568 16.9643 20.4006 16.8972 20.4302 16.8234C20.4597 16.7496 20.4744 16.6707 20.4734 16.5911V16.2981H27.5144V16.5235C27.5134 16.603 27.5281 16.682 27.5576 16.7558C27.5872 16.8296 27.631 16.8967 27.6865 16.9533C27.742 17.0099 27.8081 17.0549 27.881 17.0856C27.9539 17.1162 28.0321 17.132 28.1111 17.132H28.208C28.349 17.1105 28.4777 17.0388 28.5708 16.9299C28.6638 16.821 28.715 16.6822 28.7152 16.5385V15.6596C28.7152 15.5002 28.6524 15.3473 28.5405 15.2346C28.4286 15.1219 28.2768 15.0585 28.1185 15.0585H25.4036C25.4072 15.0286 25.4072 14.9983 25.4036 14.9684V13.541C25.3871 13.3922 25.3167 13.2548 25.206 13.155C25.0952 13.0552 24.9518 13 24.8032 13C24.6545 13 24.5111 13.0552 24.4004 13.155C24.2896 13.2548 24.2192 13.3922 24.2027 13.541V14.9909C24.2027 14.9909 24.2027 15.051 24.2027 15.0886H23.7478C23.7512 15.0561 23.7512 15.0234 23.7478 14.9909V13.541C23.7313 13.3922 23.6609 13.2548 23.5502 13.155C23.4394 13.0552 23.296 13 23.1473 13C22.9987 13 22.8553 13.0552 22.7445 13.155C22.6338 13.2548 22.5634 13.3922 22.5469 13.541V14.9909C22.5432 15.0234 22.5432 15.0561 22.5469 15.0886H19.8767C19.7165 15.0886 19.5628 15.1527 19.4495 15.2668C19.3362 15.3809 19.2726 15.5357 19.2726 15.6971V16.5986C19.2726 16.6782 19.2883 16.757 19.3187 16.8304C19.3492 16.9038 19.3938 16.9704 19.45 17.0263C19.5062 17.0822 19.5728 17.1263 19.6461 17.1561C19.7194 17.1858 19.7977 17.2006 19.8767 17.1996Z" fill="white"/>
<path d="M37.9945 19.2165C37.9954 18.9696 37.9479 18.7249 37.8545 18.4966C37.7612 18.2683 37.6238 18.0608 37.4505 17.8862C37.2771 17.7116 37.0712 17.5733 36.8445 17.4792C36.6178 17.3852 36.3749 17.3373 36.1297 17.3383H15.2449V16.895H16.9007C17.0639 16.8851 17.2165 16.8102 17.3249 16.6869C17.4333 16.5637 17.4887 16.4021 17.4788 16.2377C17.4689 16.0733 17.3946 15.9196 17.2722 15.8104C17.1498 15.7012 16.9894 15.6455 16.8261 15.6554H12.5075C12.3597 15.672 12.2233 15.7429 12.1242 15.8545C12.0251 15.9661 11.9703 16.1105 11.9703 16.2602C11.9703 16.4099 12.0251 16.5544 12.1242 16.6659C12.2233 16.7775 12.3597 16.8484 12.5075 16.865H14.0664V17.3458H11.866C11.7644 17.3343 11.6618 17.3343 11.5602 17.3458C11.1131 17.4188 10.7079 17.6538 10.4208 18.0066C10.1337 18.3594 9.98453 18.8057 10.0013 19.2616V33.1227C10.0013 33.6208 10.1977 34.0986 10.5474 34.4508C10.8971 34.803 11.3714 35.0009 11.866 35.0009L36.1372 34.9633C36.2365 34.9708 36.3362 34.9708 36.4356 34.9633C36.8729 34.8932 37.2708 34.6674 37.5568 34.3268C37.8429 33.9863 37.9982 33.5537 37.9945 33.1077V19.2165ZM24.7922 32.7621C23.2692 32.7653 21.8007 32.1912 20.6786 31.1538C19.5566 30.1164 18.8632 28.6917 18.7364 27.163C18.6095 25.6342 19.0584 24.1134 19.9939 22.9028C20.9293 21.6921 22.2828 20.8804 23.7853 20.6289C24.1177 20.5699 24.4548 20.5422 24.7922 20.5463C26.3153 20.543 27.7838 21.1172 28.9058 22.1545C30.0279 23.1919 30.7212 24.6166 30.8481 26.1454C30.975 27.6741 30.5261 29.195 29.5906 30.4056C28.6551 31.6162 27.3016 32.428 25.7992 32.6795C25.4663 32.7346 25.1296 32.7622 24.7922 32.7621ZM36.2491 33.7463H36.1372H26.4406C28.1462 33.3111 29.6369 32.2672 30.6361 30.8086C31.6353 29.35 32.075 27.5758 31.8736 25.8153C31.6723 24.0548 30.8434 22.4278 29.5411 21.2363C28.2387 20.0448 26.5513 19.3698 24.7922 19.3367C24.393 19.3274 23.9938 19.3526 23.5988 19.4118C21.9428 19.6902 20.4336 20.5377 19.3278 21.8102C18.2221 23.0828 17.5881 24.7018 17.5336 26.392C17.4791 28.0822 18.0074 29.7392 19.0289 31.0813C20.0503 32.4234 21.5017 33.3678 23.1364 33.7538H11.8884C11.7116 33.7538 11.542 33.6836 11.4163 33.5584C11.2906 33.4332 11.219 33.2632 11.2171 33.0851V19.224C11.2148 19.0646 11.2692 18.9096 11.3704 18.787C11.4716 18.6644 11.613 18.5822 11.769 18.5554H11.8809L36.1297 18.5479C36.2171 18.5465 36.3039 18.5631 36.3847 18.5966C36.4655 18.6302 36.5387 18.6801 36.5996 18.7432C36.6626 18.8048 36.7128 18.8783 36.7474 18.9595C36.782 19.0408 36.8002 19.1281 36.801 19.2165V33.0851C36.8051 33.2419 36.7532 33.3949 36.6546 33.5163C36.556 33.6377 36.4174 33.7193 36.264 33.7463H36.2491Z" fill="white"/>
<path d="M24.7953 22.9142C24.5927 22.9124 24.3904 22.93 24.1912 22.9668C23.3012 23.1539 22.5098 23.662 21.9656 24.3956C21.4215 25.1292 21.1622 26.0377 21.2364 26.9504C21.3106 27.8631 21.7132 28.717 22.3686 29.3516C23.024 29.9863 23.887 30.3579 24.7953 30.3967C24.9977 30.3941 25.1996 30.3765 25.3995 30.3441C26.2894 30.157 27.0809 29.6489 27.625 28.9153C28.1691 28.1817 28.4285 27.2731 28.3542 26.3605C28.28 25.4478 27.8774 24.5939 27.222 23.9593C26.5666 23.3246 25.7036 22.953 24.7953 22.9142ZM25.213 29.1496C24.8525 29.2135 24.4824 29.1967 24.129 29.1006C23.7756 29.0045 23.4475 28.8314 23.1679 28.5934C22.8883 28.3555 22.664 28.0586 22.5108 27.7237C22.3577 27.3888 22.2795 27.0241 22.2818 26.6554C22.2793 26.0545 22.4898 25.4725 22.8754 25.0139C23.2609 24.5553 23.7962 24.2503 24.3851 24.1538C24.5216 24.1423 24.6588 24.1423 24.7953 24.1538C25.4233 24.1572 26.0273 24.3972 26.4884 24.8267C26.9495 25.2562 27.2342 25.8439 27.2866 26.4743C27.339 27.1046 27.1552 27.7319 26.7715 28.2326C26.3877 28.7333 25.8317 29.0712 25.213 29.1797V29.1496Z" fill="white"/>
<path d="M30.2072 26.2905C30.184 26.1406 30.1061 26.0048 29.9888 25.9098C29.8714 25.8147 29.7231 25.7673 29.5728 25.7767C29.4225 25.7861 29.2811 25.8517 29.1763 25.9606C29.0715 26.0696 29.0109 26.214 29.0063 26.3656C29.0063 26.4558 29.0063 26.5534 29.0063 26.6436C29.0042 27.4825 28.7558 28.3021 28.2922 28.9991C27.8287 29.6962 27.1707 30.2395 26.4013 30.5608C25.6318 30.882 24.7852 30.9668 23.968 30.8045C23.1508 30.6422 22.3995 30.24 21.8088 29.6486C21.413 29.2565 21.0989 28.7887 20.885 28.2726C20.6711 27.7566 20.5617 27.2028 20.5632 26.6436C20.5644 25.7829 20.8244 24.9429 21.3089 24.234C21.7934 23.5252 22.4798 22.9808 23.2776 22.6725C24.0753 22.3643 24.9471 22.3067 25.778 22.5073C26.6089 22.7079 27.36 23.1573 27.9323 23.7963C28.0381 23.9159 28.1868 23.9882 28.3455 23.9973C28.5043 24.0065 28.6602 23.9517 28.7789 23.8451C28.8975 23.7385 28.9693 23.5888 28.9784 23.4289C28.9875 23.269 28.9332 23.112 28.8273 22.9925C28.2224 22.3171 27.4595 21.8046 26.608 21.5015C25.7564 21.1984 24.8432 21.1144 23.9513 21.257C23.0593 21.3996 22.2169 21.7643 21.5004 22.3181C20.7839 22.8718 20.2161 23.5971 19.8484 24.428C19.4808 25.2588 19.3251 26.169 19.3953 27.0759C19.4656 27.9828 19.7596 28.8577 20.2507 29.6211C20.7418 30.3845 21.4145 31.0122 22.2076 31.4473C23.0007 31.8825 23.8891 32.1112 24.7922 32.1127C25.0871 32.111 25.3814 32.0859 25.6723 32.0376C26.9396 31.8243 28.0908 31.1652 28.9211 30.1776C29.7514 29.1899 30.2071 27.9377 30.2072 26.6436C30.2146 26.5234 30.2146 26.4032 30.2072 26.2905Z" fill="white"/>
<path d="M28.6585 24.6805C28.6329 24.7841 28.6329 24.8925 28.6585 24.9961C28.7072 25.1301 28.801 25.2427 28.9238 25.3142C29.0465 25.3856 29.1902 25.4113 29.3298 25.3867H29.4193C29.5343 25.3458 29.6343 25.2708 29.7062 25.1716C29.7781 25.0724 29.8185 24.9536 29.8221 24.8308C29.8408 24.7518 29.8408 24.6694 29.8221 24.5904C29.7853 24.4535 29.7016 24.3341 29.5858 24.2533C29.47 24.1726 29.3296 24.1357 29.1894 24.1492C29.0492 24.1627 28.9183 24.2257 28.8197 24.3271C28.7212 24.4284 28.6615 24.5616 28.6511 24.7031L28.6585 24.6805Z" fill="white"/>
<path d="M14.3497 19.334C14.2707 19.334 14.1925 19.3498 14.1197 19.3804C14.0468 19.4111 13.9807 19.4561 13.9251 19.5127C13.8696 19.5693 13.8258 19.6364 13.7963 19.7102C13.7668 19.784 13.7521 19.8629 13.753 19.9425V32.6012C13.752 32.6804 13.7668 32.759 13.7964 32.8324C13.826 32.9057 13.87 32.9724 13.9256 33.0284C13.9812 33.0844 14.0474 33.1286 14.1202 33.1585C14.1931 33.1883 14.2711 33.2032 14.3497 33.2022H14.4467C14.5863 33.179 14.7133 33.1066 14.8048 32.9979C14.8963 32.8892 14.9465 32.7512 14.9464 32.6087V19.95C14.9474 19.8701 14.9328 19.7908 14.9033 19.7166C14.8738 19.6424 14.8302 19.5747 14.7748 19.5175C14.7193 19.4603 14.6533 19.4147 14.5804 19.3832C14.5074 19.3517 14.4291 19.335 14.3497 19.334Z" fill="white"/>
<path d="M36.1338 19.1689C36.0202 19.0573 35.8674 18.9952 35.7087 18.9961H31.9346C31.8556 18.9961 31.7774 19.0119 31.7045 19.0426C31.6317 19.0732 31.5656 19.1182 31.51 19.1748C31.4545 19.2314 31.4107 19.2985 31.3812 19.3723C31.3517 19.4461 31.3369 19.5251 31.3379 19.6046V21.3025C31.3418 21.4619 31.4069 21.6137 31.5196 21.7258C31.6323 21.8379 31.7837 21.9016 31.9421 21.9035H35.7162H35.8131C35.9352 21.8855 36.048 21.8274 36.1338 21.7382C36.2467 21.6245 36.311 21.4708 36.3128 21.31V19.5971C36.3131 19.5173 36.2974 19.4382 36.2667 19.3646C36.2359 19.291 36.1907 19.2245 36.1338 19.1689ZM32.5388 20.6714V20.1831H35.112V20.6789L32.5388 20.6714Z" fill="white"/>
<path d="M30.5838 16.9029H32.3291C32.4775 16.88 32.6122 16.8022 32.7068 16.6847C32.8014 16.5672 32.8492 16.4185 32.8408 16.2674C32.8324 16.1164 32.7685 15.9739 32.6615 15.8678C32.5545 15.7616 32.412 15.6995 32.262 15.6934H30.5763C30.4286 15.71 30.2922 15.7808 30.1931 15.8924C30.094 16.004 30.0392 16.1484 30.0392 16.2981C30.0392 16.4478 30.094 16.5923 30.1931 16.7038C30.2922 16.8154 30.4286 16.8863 30.5763 16.9029H30.5838Z" fill="white"/>
<path d="M34.1209 16.9033H35.8663C36.0059 16.8802 36.1328 16.8078 36.2244 16.6991C36.3159 16.5903 36.3661 16.4524 36.366 16.3098C36.3722 16.2262 36.3611 16.1422 36.3335 16.0631C36.3059 15.984 36.2624 15.9115 36.2057 15.8501C36.1489 15.7887 36.0802 15.7398 36.0039 15.7065C35.9275 15.6731 35.8451 15.656 35.7618 15.6563H34.1135C33.9658 15.6729 33.8293 15.7437 33.7302 15.8553C33.6311 15.9669 33.5764 16.1113 33.5764 16.261C33.5764 16.4107 33.6311 16.5552 33.7302 16.6667C33.8293 16.7783 33.9658 16.8492 34.1135 16.8658L34.1209 16.9033Z" fill="white"/>
</svg>
