<svg width="47" height="48" viewBox="0 0 47 48" fill="none" xmlns="http://www.w3.org/2000/svg">
<rect width="47" height="48" rx="13" fill="#7059FF"/>
<path fill-rule="evenodd" clip-rule="evenodd" d="M33.5384 14.75V31.25C33.5384 32.7694 32.3078 34 30.7884 34H16.7112C15.1918 34 13.9612 32.7694 13.9612 31.25V14.75C13.9612 13.2306 15.1918 12 16.7112 12H30.7898C32.3078 12 33.5384 13.2306 33.5384 14.75Z" stroke="white" stroke-width="2" stroke-linecap="round" stroke-linejoin="round"/>
<path d="M28.9062 19.9062L21.8164 27.125L18.5938 23.8438" stroke="white" stroke-width="2" stroke-linecap="round" stroke-linejoin="round"/>
<path d="M33.5388 14.75H34.7502C36.2696 14.75 37.5002 15.9806 37.5002 17.5V28.5C37.5002 30.0194 36.2696 31.25 34.7502 31.25H33.5388" stroke="white" stroke-width="2" stroke-linecap="round" stroke-linejoin="round"/>
<path d="M13.9614 31.25H12.75C11.2306 31.25 10 30.0194 10 28.5V17.5C10 15.9806 11.2306 14.75 12.75 14.75H13.9614" stroke="white" stroke-width="2" stroke-linecap="round" stroke-linejoin="round"/>
</svg>
