<svg width="47" height="48" viewBox="0 0 47 48" fill="none" xmlns="http://www.w3.org/2000/svg">
<rect width="47" height="48" rx="13" fill="#7059FF"/>
<path d="M32.7032 27.5196C34.2885 29.1049 34.1186 31.7827 32.1924 33.1333C30.9665 33.9925 29.2554 33.9925 28.0295 33.1333C26.1033 31.7815 25.9322 29.1049 27.5186 27.5196C28.9498 26.0872 31.272 26.0872 32.7032 27.5196Z" stroke="white" stroke-width="2" stroke-linecap="round" stroke-linejoin="round"/>
<path d="M32.7034 32.7031L35 34.9997" stroke="white" stroke-width="2" stroke-linecap="round" stroke-linejoin="round"/>
<path fill-rule="evenodd" clip-rule="evenodd" d="M19.1111 21.5555H15.4444C14.0939 21.5555 13 20.4616 13 19.1111V15.4444C13 14.0939 14.0939 13 15.4444 13H19.1111C20.4616 13 21.5555 14.0939 21.5555 15.4444V19.1111C21.5555 20.4616 20.4616 21.5555 19.1111 21.5555Z" stroke="white" stroke-width="2" stroke-linecap="round" stroke-linejoin="round"/>
<path fill-rule="evenodd" clip-rule="evenodd" d="M32.5555 21.5555H28.8888C27.5383 21.5555 26.4444 20.4616 26.4444 19.1111V15.4444C26.4444 14.0939 27.5383 13 28.8888 13H32.5555C33.906 13 34.9999 14.0939 34.9999 15.4444V19.1111C34.9999 20.4616 33.906 21.5555 32.5555 21.5555Z" stroke="white" stroke-width="2" stroke-linecap="round" stroke-linejoin="round"/>
<path fill-rule="evenodd" clip-rule="evenodd" d="M19.1111 35.0008H15.4444C14.0939 35.0008 13 33.9069 13 32.5564V28.8897C13 27.5392 14.0939 26.4453 15.4444 26.4453H19.1111C20.4616 26.4453 21.5555 27.5392 21.5555 28.8897V32.5564C21.5555 33.9069 20.4616 35.0008 19.1111 35.0008Z" stroke="white" stroke-width="2" stroke-linecap="round" stroke-linejoin="round"/>
</svg>
