<svg width="47" height="48" viewBox="0 0 47 48" fill="none" xmlns="http://www.w3.org/2000/svg">
<rect width="47" height="48" rx="13" fill="#7059FF"/>
<path d="M15.4 25.3203C15.0519 25.3203 14.7116 25.4235 14.4222 25.6169C14.1328 25.8103 13.9072 26.0852 13.774 26.4068C13.6408 26.7284 13.6059 27.0823 13.6738 27.4237C13.7417 27.7651 13.9094 28.0787 14.1555 28.3248C14.4016 28.571 14.7152 28.7386 15.0566 28.8065C15.398 28.8744 15.7519 28.8396 16.0735 28.7063C16.3951 28.5731 16.67 28.3476 16.8634 28.0581C17.0568 27.7687 17.16 27.4284 17.16 27.0803C17.16 26.6135 16.9746 26.1659 16.6445 25.8358C16.3144 25.5057 15.8668 25.3203 15.4 25.3203ZM15.4 27.9603C15.226 27.9603 15.0558 27.9087 14.9111 27.812C14.7664 27.7153 14.6536 27.5779 14.587 27.4171C14.5204 27.2563 14.503 27.0793 14.5369 26.9086C14.5709 26.7379 14.6547 26.5811 14.7777 26.4581C14.9008 26.335 15.0576 26.2512 15.2283 26.2172C15.399 26.1833 15.576 26.2007 15.7368 26.2673C15.8976 26.3339 16.035 26.4467 16.1317 26.5914C16.2284 26.7361 16.28 26.9063 16.28 27.0803C16.28 27.3137 16.1873 27.5375 16.0223 27.7026C15.8572 27.8676 15.6334 27.9603 15.4 27.9603Z" fill="white"/>
<path d="M33 25.3203C32.6519 25.3203 32.3116 25.4235 32.0222 25.6169C31.7328 25.8103 31.5072 26.0852 31.374 26.4068C31.2408 26.7284 31.2059 27.0823 31.2738 27.4237C31.3417 27.7651 31.5094 28.0787 31.7555 28.3248C32.0016 28.571 32.3152 28.7386 32.6566 28.8065C32.998 28.8744 33.3519 28.8396 33.6735 28.7063C33.9951 28.5731 34.27 28.3476 34.4634 28.0581C34.6568 27.7687 34.76 27.4284 34.76 27.0803C34.76 26.6135 34.5746 26.1659 34.2445 25.8358C33.9144 25.5057 33.4668 25.3203 33 25.3203ZM33 27.9603C32.826 27.9603 32.6558 27.9087 32.5111 27.812C32.3664 27.7153 32.2536 27.5779 32.187 27.4171C32.1204 27.2563 32.103 27.0793 32.1369 26.9086C32.1709 26.7379 32.2547 26.5811 32.3777 26.4581C32.5008 26.335 32.6576 26.2512 32.8283 26.2172C32.999 26.1833 33.176 26.2007 33.3368 26.2673C33.4976 26.3339 33.635 26.4467 33.7317 26.5914C33.8284 26.7361 33.88 26.9063 33.88 27.0803C33.88 27.3137 33.7873 27.5375 33.6223 27.7026C33.4572 27.8676 33.2334 27.9603 33 27.9603Z" fill="white"/>
<path d="M20.24 27.5195H28.16V28.3995H20.24V27.5195Z" fill="white"/>
<path d="M20.24 25.7598H28.16V26.6398H20.24V25.7598Z" fill="white"/>
<path d="M22.88 19.1602H25.52V20.0402H22.88V19.1602Z" fill="white"/>
<path d="M37.4 23.12V22.24C37.399 21.8902 37.2595 21.5551 37.0122 21.3078C36.7649 21.0605 36.4298 20.921 36.08 20.92H34.3376L33.4268 17.7256L33.154 16.6388C33.0824 16.3534 32.9175 16.1002 32.6856 15.9192C32.4536 15.7383 32.1678 15.64 31.8736 15.64H28.16V13.88C28.1593 13.6468 28.0664 13.4234 27.9015 13.2585C27.7366 13.0936 27.5132 13.0007 27.28 13H21.12C20.8868 13.0007 20.6634 13.0936 20.4985 13.2585C20.3336 13.4234 20.2407 13.6468 20.24 13.88V15.64H16.5264C16.2322 15.64 15.9464 15.7383 15.7144 15.9192C15.4825 16.1002 15.3176 16.3534 15.246 16.6388L14.9776 17.7212L14.0624 20.92H12.32C11.9702 20.921 11.6351 21.0605 11.3878 21.3078C11.1405 21.5551 11.001 21.8902 11 22.24V23.12C11.0007 23.3429 11.058 23.562 11.1665 23.7567C11.275 23.9514 11.4312 24.1153 11.6204 24.2332C11.2226 24.6419 11.0001 25.1897 11 25.76V31.04C11.0006 31.2246 11.0401 31.407 11.1159 31.5753C11.1917 31.7436 11.3022 31.894 11.44 32.0168V33.68C11.441 34.0298 11.5805 34.3649 11.8278 34.6122C12.0751 34.8595 12.4102 34.999 12.76 35H16.28C16.6298 34.999 16.9649 34.8595 17.2122 34.6122C17.4595 34.3649 17.599 34.0298 17.6 33.68V32.36H30.8V33.68C30.801 34.0298 30.9405 34.3649 31.1878 34.6122C31.4351 34.8595 31.7702 34.999 32.12 35H35.64C35.9898 34.999 36.3249 34.8595 36.5722 34.6122C36.8195 34.3649 36.959 34.0298 36.96 33.68V32.0168C37.0978 31.894 37.2083 31.7436 37.2841 31.5753C37.3599 31.407 37.3994 31.2246 37.4 31.04V25.76C37.3999 25.1897 37.1774 24.6419 36.7796 24.2332C36.9688 24.1153 37.125 23.9514 37.2335 23.7567C37.342 23.562 37.3993 23.3429 37.4 23.12ZM21.12 13.88H27.28V15.64H21.12V13.88ZM16.0996 16.8544C16.1232 16.759 16.178 16.6743 16.2554 16.6136C16.3327 16.553 16.4281 16.5201 16.5264 16.52H31.8736C31.9719 16.5201 32.0673 16.553 32.1446 16.6136C32.222 16.6743 32.2768 16.759 32.3004 16.8544L32.4368 17.4H15.9632L16.0996 16.8544ZM15.73 18.28H32.67L34.1748 23.56H21.5204C21.417 22.9451 21.099 22.3867 20.623 21.9841C20.1469 21.5814 19.5435 21.3604 18.92 21.3604C18.2965 21.3604 17.6931 21.5814 17.217 21.9841C16.741 22.3867 16.423 22.9451 16.3196 23.56H14.2252L15.73 18.28ZM20.6184 23.56H17.2216C17.3177 23.1824 17.5368 22.8477 17.8444 22.6086C18.1519 22.3695 18.5304 22.2396 18.92 22.2396C19.3096 22.2396 19.6881 22.3695 19.9956 22.6086C20.3032 22.8477 20.5223 23.1824 20.6184 23.56ZM11.88 22.24C11.88 22.1233 11.9264 22.0114 12.0089 21.9289C12.0914 21.8464 12.2033 21.8 12.32 21.8H13.8116L13.31 23.56H12.32C12.2033 23.56 12.0914 23.5136 12.0089 23.4311C11.9264 23.3486 11.88 23.2367 11.88 23.12V22.24ZM16.72 33.68C16.72 33.7967 16.6736 33.9086 16.5911 33.9911C16.5086 34.0736 16.3967 34.12 16.28 34.12H12.76C12.6433 34.12 12.5314 34.0736 12.4489 33.9911C12.3664 33.9086 12.32 33.7967 12.32 33.68V32.36H16.72V33.68ZM36.08 33.68C36.08 33.7967 36.0336 33.9086 35.9511 33.9911C35.8686 34.0736 35.7567 34.12 35.64 34.12H32.12C32.0033 34.12 31.8914 34.0736 31.8089 33.9911C31.7264 33.9086 31.68 33.7967 31.68 33.68V32.36H36.08V33.68ZM36.52 31.04C36.52 31.1567 36.4736 31.2686 36.3911 31.3511C36.3086 31.4336 36.1967 31.48 36.08 31.48H12.32C12.2033 31.48 12.0914 31.4336 12.0089 31.3511C11.9264 31.2686 11.88 31.1567 11.88 31.04V30.6H36.52V31.04ZM36.52 29.72H11.88V25.76C11.881 25.4102 12.0205 25.0751 12.2678 24.8278C12.5151 24.5805 12.8502 24.441 13.2 24.44H35.2C35.5498 24.441 35.8849 24.5805 36.1322 24.8278C36.3795 25.0751 36.519 25.4102 36.52 25.76V29.72ZM36.52 23.12C36.52 23.2367 36.4736 23.3486 36.3911 23.4311C36.3086 23.5136 36.1967 23.56 36.08 23.56H35.09L34.5884 21.8H36.08C36.1967 21.8 36.3086 21.8464 36.3911 21.9289C36.4736 22.0114 36.52 22.1233 36.52 22.24V23.12Z" fill="white"/>
</svg>
