<svg width="20" height="19" viewBox="0 0 20 19" fill="none" xmlns="http://www.w3.org/2000/svg">
<path d="M7 4.0001C7.12925 4 7.26251 4 7.4 4H12.6C12.7375 4 12.8708 4 13 4.0001M7 4.0001C5.0233 4.00164 3.98717 4.02676 3.18404 4.43597C2.43139 4.81947 1.81947 5.43139 1.43597 6.18404C1 7.03969 1 8.15979 1 10.4V11.6C1 13.8402 1 14.9603 1.43597 15.816C1.81947 16.5686 2.43139 17.1805 3.18404 17.564C4.03968 18 5.15979 18 7.4 18H12.6C14.8402 18 15.9603 18 16.816 17.564C17.5686 17.1805 18.1805 16.5686 18.564 15.816C19 14.9603 19 13.8402 19 11.6V10.4C19 8.15979 19 7.03969 18.564 6.18404C18.1805 5.43139 17.5686 4.81947 16.816 4.43597C16.0128 4.02676 14.9767 4.00164 13 4.0001M7 4.0001V3C7 1.89543 7.89543 1 9 1H11C12.1046 1 13 1.89543 13 3V4.0001M13 11C13 12.6569 11.6569 14 10 14C8.34315 14 7 12.6569 7 11C7 9.34315 8.34315 8 10 8C11.6569 8 13 9.34315 13 11Z" stroke="black" stroke-width="2" stroke-linecap="round"/>
</svg>
