<svg width="24" height="24" viewBox="0 0 24 24" fill="none" xmlns="http://www.w3.org/2000/svg">
<path d="M19.636 4.36321C17.5961 2.32336 14.884 1.19995 11.9992 1.19995C9.11444 1.19995 6.40233 2.32336 4.36248 4.36321C2.32263 6.40306 1.19922 9.11517 1.19922 12C1.19922 14.8847 2.32263 17.5968 4.36248 19.6367C6.40233 21.6765 9.11444 22.7999 11.9992 22.7999C14.884 22.7999 17.5961 21.6765 19.636 19.6367C21.6758 17.5968 22.7992 14.8847 22.7992 12C22.7992 9.11517 21.6758 6.40306 19.636 4.36321ZM3.69794 16.3203C3.0221 15.027 2.6392 13.5575 2.6392 12C2.6392 10.4424 3.0221 8.97287 3.6979 7.67961L7.13264 9.39702C6.71599 10.1729 6.4792 11.0593 6.4792 12C6.4792 12.9406 6.71599 13.827 7.13268 14.603L3.69794 16.3203ZM11.9992 2.63994C13.5567 2.63994 15.0263 3.02283 16.3196 3.69863L14.6021 7.13337C13.8262 6.71673 12.9399 6.47993 11.9992 6.47993C11.0585 6.47993 10.1722 6.71673 9.39621 7.13341L7.6788 3.69867C8.97214 3.02283 10.4417 2.63994 11.9992 2.63994ZM16.0792 12C16.0792 14.2497 14.2489 16.0799 11.9992 16.0799C9.74953 16.0799 7.91922 14.2496 7.91922 12C7.91922 9.75026 9.74953 7.91996 11.9992 7.91996C14.249 7.91996 16.0792 9.75026 16.0792 12ZM11.9992 21.36C10.4417 21.36 8.97214 20.9771 7.67888 20.3013L9.39629 16.8665C10.1722 17.2832 11.0585 17.52 11.9992 17.52C12.9399 17.52 13.8262 17.2832 14.6022 16.8665L16.3196 20.3012C15.0263 20.9771 13.5567 21.36 11.9992 21.36ZM16.8658 14.603C17.2824 13.827 17.5192 12.9407 17.5192 12C17.5192 11.0592 17.2824 10.1729 16.8658 9.39694L20.3005 7.67953C20.9763 8.97283 21.3592 10.4424 21.3592 11.9999C21.3592 13.5574 20.9763 15.027 20.3005 16.3202L16.8658 14.603Z" fill="#333D46"/>
</svg>
