<svg width="33" height="24" viewBox="0 0 33 24" fill="none" xmlns="http://www.w3.org/2000/svg">
<g clip-path="url(#clip0_1037_992)">
<path fill-rule="evenodd" clip-rule="evenodd" d="M0 1.5C0 0.671572 0.671572 0 1.5 0H31.5C32.3284 0 33 0.671572 33 1.5C33 2.32842 32.3284 3 31.5 3H1.5C0.671572 3 0 2.32842 0 1.5ZM0 12C0 11.1716 0.671572 10.5 1.5 10.5H31.5C32.3284 10.5 33 11.1716 33 12C33 12.8284 32.3284 13.5 31.5 13.5H1.5C0.671572 13.5 0 12.8284 0 12ZM15 22.5C15 21.6716 15.6715 21 16.5 21H31.5C32.3284 21 33 21.6716 33 22.5C33 23.3284 32.3284 24 31.5 24H16.5C15.6715 24 15 23.3284 15 22.5Z" fill="#333D46"/>
</g>
<defs>
<clipPath id="clip0_1037_992">
<rect width="33" height="24" fill="white"/>
</clipPath>
</defs>
</svg>
