<svg width="58" height="46" viewBox="0 0 58 46" fill="none" xmlns="http://www.w3.org/2000/svg">
<path d="M20.3436 8.87305C20.5063 8.87306 20.6674 8.84053 20.8175 8.77735C20.9677 8.71418 21.1038 8.6216 21.2182 8.505C21.3325 8.38841 21.4227 8.2501 21.4836 8.09812C21.5444 7.94613 21.5747 7.78349 21.5727 7.61962V7.01612H36.0756V7.48035C36.0736 7.64422 36.1039 7.80686 36.1647 7.95885C36.2256 8.11083 36.3158 8.24914 36.4301 8.36574C36.5445 8.48233 36.6807 8.57491 36.8308 8.63808C36.9809 8.70126 37.142 8.73379 37.3047 8.73378H37.5044C37.7949 8.68939 38.0599 8.54169 38.2516 8.31743C38.4432 8.09318 38.5488 7.8072 38.5491 7.5113V5.7008C38.5491 5.37247 38.4196 5.0576 38.1891 4.82544C37.9586 4.59328 37.646 4.46285 37.3201 4.46285H31.7278C31.7354 4.40119 31.7354 4.33882 31.7278 4.27716V1.33703C31.6939 1.03058 31.5489 0.747493 31.3208 0.541905C31.0926 0.336318 30.7972 0.222656 30.4911 0.222656C30.1849 0.222656 29.8895 0.336318 29.6614 0.541905C29.4332 0.747493 29.2883 1.03058 29.2543 1.33703V4.32358C29.2543 4.32358 29.2543 4.44737 29.2543 4.52475H28.3172C28.3242 4.45788 28.3242 4.39045 28.3172 4.32358V1.33703C28.2832 1.03058 28.1383 0.747493 27.9101 0.541905C27.682 0.336318 27.3866 0.222656 27.0804 0.222656C26.7743 0.222656 26.4789 0.336318 26.2507 0.541905C26.0226 0.747493 25.8776 1.03058 25.8437 1.33703V4.32358C25.8361 4.39042 25.8361 4.45791 25.8437 4.52475H20.3436C20.0136 4.52475 19.697 4.6568 19.4637 4.89187C19.2303 5.12693 19.0992 5.44574 19.0992 5.77817V7.6351C19.0992 7.79898 19.1315 7.96123 19.1942 8.11244C19.2569 8.26365 19.3488 8.40082 19.4646 8.51597C19.5803 8.63113 19.7177 8.722 19.8685 8.78329C20.0194 8.84459 20.1809 8.8751 20.3436 8.87305Z" fill="#7059FF"/>
<path d="M57.6611 13.0364C57.6631 12.5278 57.5652 12.0238 57.3729 11.5536C57.1806 11.0833 56.8977 10.656 56.5407 10.2963C56.1836 9.9367 55.7594 9.65182 55.2925 9.45813C54.8256 9.26444 54.3252 9.16578 53.8203 9.16782H10.803V8.25484H14.2137C14.5498 8.23431 14.8641 8.08013 15.0874 7.82621C15.3107 7.57228 15.4247 7.23941 15.4043 6.90083C15.384 6.56224 15.2309 6.24568 14.9788 6.02077C14.7267 5.79587 14.3962 5.68104 14.06 5.70156H5.16469C4.86044 5.73577 4.57939 5.88174 4.37527 6.11155C4.17116 6.34137 4.05832 6.6389 4.05832 6.94725C4.05832 7.2556 4.17116 7.55313 4.37527 7.78295C4.57939 8.01276 4.86044 8.15873 5.16469 8.19294H8.37562V9.1833H3.84344C3.63413 9.15966 3.42286 9.15966 3.21355 9.1833C2.29271 9.33359 1.45812 9.81762 0.866789 10.5443C0.275455 11.271 -0.0318725 12.1903 0.00261756 13.1293V41.6795C0.00261756 42.7055 0.407275 43.6895 1.12757 44.415C1.84786 45.1405 2.82479 45.5481 3.84344 45.5481L53.8356 45.4707C54.0402 45.4861 54.2456 45.4861 54.4502 45.4707C55.351 45.3262 56.1705 44.8611 56.7597 44.1597C57.3489 43.4583 57.6688 42.5673 57.6611 41.6485V13.0364ZM30.468 40.9367C27.3309 40.9434 24.3062 39.7608 21.9951 37.6241C19.6841 35.4873 18.2559 32.5529 17.9946 29.4041C17.7333 26.2552 18.6579 23.1227 20.5847 20.6291C22.5115 18.1355 25.2993 16.4636 28.394 15.9456C29.0786 15.8241 29.7729 15.7671 30.468 15.7754C33.6052 15.7687 36.6299 16.9512 38.941 19.088C41.252 21.2248 42.6802 24.1592 42.9415 27.308C43.2028 30.4568 42.2782 33.5894 40.3514 36.083C38.4246 38.5765 35.6368 40.2485 32.5421 40.7665C31.8565 40.8801 31.1628 40.937 30.468 40.9367ZM54.0661 42.9639H53.8356H33.8633C37.3762 42.0674 40.4468 39.9174 42.5049 36.9131C44.563 33.9088 45.4687 30.2543 45.0539 26.6282C44.6391 23.0021 42.9319 19.6508 40.2494 17.1966C37.5669 14.7425 34.0913 13.3522 30.468 13.284C29.6458 13.2649 28.8234 13.3167 28.0099 13.4387C24.5989 14.0121 21.4904 15.7577 19.2128 18.3788C16.9353 20.9999 15.6294 24.3346 15.5171 27.8159C15.4049 31.2973 16.4932 34.7103 18.5971 37.4747C20.701 40.2391 23.6905 42.1842 27.0574 42.9793H3.88953C3.52547 42.9794 3.17608 42.8347 2.91721 42.5769C2.65834 42.3191 2.51088 41.9688 2.50684 41.6021V13.0519C2.50218 12.7235 2.61418 12.4042 2.82265 12.1517C3.03111 11.8992 3.32231 11.73 3.64372 11.6747H3.87417L53.8203 11.6592C54.0003 11.6563 54.179 11.6905 54.3455 11.7597C54.5119 11.8289 54.6626 11.9316 54.7882 12.0615C54.9178 12.1883 55.0213 12.3398 55.0925 12.5071C55.1637 12.6745 55.2012 12.8544 55.203 13.0364V41.6021C55.2114 41.925 55.1044 42.2402 54.9013 42.4902C54.6982 42.7402 54.4127 42.9083 54.0968 42.9639H54.0661Z" fill="#7059FF"/>
<path d="M30.468 20.6507C30.0507 20.6469 29.634 20.6832 29.2236 20.759C27.3905 21.1444 25.7603 22.1911 24.6395 23.7021C23.5187 25.2132 22.9845 27.0846 23.1373 28.9645C23.2902 30.8443 24.1196 32.6033 25.4695 33.9105C26.8195 35.2177 28.597 35.9832 30.468 36.0631C30.8849 36.0578 31.3008 36.0216 31.7124 35.9548C33.5456 35.5694 35.1758 34.5227 36.2966 33.0117C37.4174 31.5006 37.9516 29.6292 37.7987 27.7493C37.6458 25.8694 36.8165 24.1105 35.4665 22.8033C34.1165 21.4961 32.339 20.7305 30.468 20.6507ZM31.3284 33.4944C30.5858 33.6259 29.8235 33.5914 29.0956 33.3935C28.3677 33.1955 27.6918 32.8389 27.1159 32.3488C26.5399 31.8587 26.0778 31.2471 25.7624 30.5573C25.447 29.8675 25.2859 29.1163 25.2906 28.3569C25.2856 27.1191 25.7191 25.9202 26.5133 24.9756C27.3075 24.0311 28.4101 23.4028 29.623 23.2039C29.9042 23.1803 30.1868 23.1803 30.468 23.2039C31.7616 23.2109 33.0057 23.7054 33.9554 24.59C34.9052 25.4746 35.4917 26.6853 35.5996 27.9837C35.7075 29.2821 35.329 30.5742 34.5385 31.6055C33.748 32.6369 32.6028 33.3328 31.3284 33.5563V33.4944Z" fill="#7059FF"/>
<path d="M41.6218 27.6126C41.5742 27.3038 41.4137 27.0242 41.172 26.8284C40.9303 26.6327 40.6246 26.5349 40.3151 26.5542C40.0055 26.5736 39.7142 26.7087 39.4984 26.9331C39.2826 27.1575 39.1577 27.455 39.1483 27.7673C39.1483 27.953 39.1483 28.1542 39.1483 28.3398C39.144 30.0679 38.6322 31.7561 37.6774 33.1919C36.7225 34.6276 35.3674 35.7468 33.7824 36.4085C32.1975 37.0702 30.4536 37.2449 28.7704 36.9106C27.0871 36.5762 25.5396 35.7478 24.3228 34.5296C23.5075 33.7219 22.8606 32.7583 22.42 31.6954C21.9794 30.6325 21.7541 29.4917 21.7571 28.3398C21.7596 26.5671 22.2951 24.8368 23.2932 23.3767C24.2912 21.9166 25.705 20.7952 27.3482 20.1603C28.9914 19.5254 30.787 19.4067 32.4985 19.8199C34.21 20.2331 35.7571 21.1588 36.936 22.4751C37.154 22.7213 37.4602 22.8702 37.7872 22.8891C38.1142 22.908 38.4353 22.7952 38.6798 22.5756C38.9242 22.3561 39.0721 22.0477 39.0908 21.7183C39.1096 21.3889 38.9976 21.0655 38.7796 20.8193C37.5335 19.4281 35.9621 18.3725 34.2081 17.7482C32.4542 17.124 30.5732 16.9508 28.736 17.2446C26.8987 17.5383 25.1634 18.2896 23.6876 19.4302C22.2117 20.5708 21.0421 22.0647 20.2849 23.7761C19.5277 25.4876 19.2069 27.3624 19.3516 29.2304C19.4963 31.0984 20.1019 32.9005 21.1135 34.4729C22.1251 36.0454 23.5106 37.3384 25.1442 38.2347C26.7778 39.1309 28.6078 39.602 30.4681 39.6052C31.0755 39.6018 31.6816 39.55 32.2809 39.4504C34.8913 39.011 37.2624 37.6535 38.9727 35.6192C40.683 33.5849 41.6217 31.0056 41.6218 28.3398C41.6372 28.0923 41.6372 27.8447 41.6218 27.6126Z" fill="#7059FF"/>
<path d="M38.4109 24.27C38.3582 24.4834 38.3582 24.7065 38.4109 24.9199C38.5111 25.1961 38.7045 25.428 38.9572 25.5751C39.21 25.7222 39.506 25.7751 39.7936 25.7246H39.978C40.2149 25.6403 40.4209 25.4859 40.5689 25.2815C40.717 25.0771 40.8002 24.8324 40.8076 24.5795C40.8461 24.4167 40.8461 24.2471 40.8076 24.0843C40.7318 23.8023 40.5594 23.5563 40.3209 23.39C40.0824 23.2237 39.7931 23.1477 39.5044 23.1755C39.2156 23.2033 38.9459 23.3331 38.743 23.5419C38.5401 23.7507 38.417 24.025 38.3956 24.3164L38.4109 24.27Z" fill="#7059FF"/>
<path d="M8.95951 13.2559C8.79681 13.2558 8.63572 13.2884 8.48559 13.3516C8.33546 13.4147 8.19929 13.5073 8.08495 13.6239C7.97062 13.7405 7.88041 13.8788 7.81956 14.0308C7.7587 14.1828 7.72841 14.3454 7.73045 14.5093V40.5836C7.72838 40.7468 7.75876 40.9087 7.8198 41.0598C7.88083 41.2109 7.97129 41.3482 8.08583 41.4636C8.20037 41.579 8.33669 41.6701 8.48674 41.7316C8.63679 41.793 8.79753 41.8236 8.95951 41.8216H9.15923C9.44687 41.7738 9.70831 41.6247 9.89686 41.4008C10.0854 41.1768 10.1888 40.8927 10.1886 40.5991V14.5248C10.1906 14.3602 10.1604 14.1968 10.0998 14.0439C10.0391 13.891 9.94911 13.7517 9.83498 13.6339C9.72085 13.5161 9.58479 13.422 9.43458 13.3572C9.28436 13.2923 9.12293 13.2579 8.95951 13.2559Z" fill="#7059FF"/>
<path d="M53.805 12.9262C53.5708 12.6963 53.2562 12.5685 52.9293 12.5703H45.1554C44.9927 12.5703 44.8316 12.6028 44.6815 12.666C44.5314 12.7292 44.3952 12.8218 44.2809 12.9384C44.1665 13.055 44.0763 13.1933 44.0155 13.3453C43.9546 13.4972 43.9243 13.6599 43.9264 13.8238V17.321C43.9343 17.6494 44.0684 17.962 44.3005 18.1929C44.5326 18.4238 44.8446 18.555 45.1708 18.5589H52.9446H53.1443C53.3958 18.5219 53.6281 18.4022 53.805 18.2185C54.0375 17.9842 54.1698 17.6677 54.1737 17.3364V13.8083C54.1743 13.6438 54.1419 13.481 54.0786 13.3294C54.0152 13.1779 53.9222 13.0407 53.805 12.9262ZM46.3999 16.0211V15.0153H51.7002V16.0366L46.3999 16.0211Z" fill="#7059FF"/>
<path d="M42.3746 8.27067H45.9696C46.2754 8.22349 46.5528 8.06327 46.7477 7.82128C46.9425 7.57928 47.0409 7.27285 47.0237 6.96174C47.0064 6.65064 46.8747 6.35716 46.6543 6.13855C46.4338 5.91994 46.1404 5.79186 45.8313 5.7793H42.3592C42.055 5.81351 41.7739 5.95947 41.5698 6.18929C41.3657 6.4191 41.2529 6.71663 41.2529 7.02498C41.2529 7.33334 41.3657 7.63087 41.5698 7.86068C41.7739 8.09049 42.055 8.23646 42.3592 8.27067H42.3746Z" fill="#7059FF"/>
<path d="M49.6569 8.26992H53.2519C53.5395 8.22221 53.801 8.07307 53.9895 7.84914C54.1781 7.62521 54.2815 7.34107 54.2812 7.04745C54.2939 6.87521 54.2712 6.70218 54.2143 6.53922C54.1575 6.37627 54.0679 6.2269 53.951 6.10049C53.8342 5.97408 53.6927 5.87336 53.5353 5.80464C53.378 5.73593 53.2083 5.7007 53.0368 5.70118H49.6415C49.3373 5.73538 49.0562 5.88135 48.8521 6.11117C48.648 6.34098 48.5352 6.63851 48.5352 6.94686C48.5352 7.25521 48.648 7.55275 48.8521 7.78256C49.0562 8.01237 49.3373 8.15834 49.6415 8.19255L49.6569 8.26992Z" fill="#7059FF"/>
</svg>
