<svg width="32" height="32" viewBox="0 0 32 32" fill="none" xmlns="http://www.w3.org/2000/svg">
<path d="M15.6235 10.6445V16.8484L20.5002 19.8217" stroke="#2A2536" stroke-linecap="round" stroke-linejoin="round"/>
<path d="M4.07324 14.6661C4.79073 8.24869 10.4561 3.54851 16.8956 4.02817C23.3352 4.50783 28.2417 9.99546 28.0005 16.4484C27.7594 22.9013 22.4569 28.0074 15.9995 28.005" stroke="#2A2536" stroke-linecap="round" stroke-linejoin="round"/>
<path fill-rule="evenodd" clip-rule="evenodd" d="M2.66064 21.8692V25.604C2.66064 26.6354 3.49673 27.4715 4.52809 27.4715H10.1304C11.1618 27.4715 11.9979 26.6354 11.9979 25.604V21.8692C11.9979 20.8378 11.1618 20.0017 10.1304 20.0017H4.52809C3.49673 20.0017 2.66064 20.8378 2.66064 21.8692Z" stroke="#2A2536" stroke-linecap="round" stroke-linejoin="round"/>
<path d="M11.9979 23.4698H2.66064" stroke="#2A2536" stroke-linecap="round" stroke-linejoin="round"/>
</svg>
