<svg width="42" height="45" viewBox="0 0 42 45" fill="none" xmlns="http://www.w3.org/2000/svg">
<path d="M41.29 34.6509L35.0297 23.8398C36.3107 21.487 36.9781 18.8493 36.9701 16.1704C36.9701 11.8818 35.2665 7.76875 32.2339 4.73621C29.2014 1.70366 25.0884 0 20.7997 0C16.5111 0 12.3981 1.70366 9.36552 4.73621C6.33298 7.76875 4.62931 11.8818 4.62931 16.1704C4.62136 18.8493 5.28873 21.487 6.56976 23.8398L0.3095 34.6509C0.106356 35.0027 -0.000400253 35.4019 1.12766e-06 35.8082C0.000402508 36.2145 0.107947 36.6135 0.311786 36.9649C0.515625 37.3164 0.808547 37.6079 1.161 37.8099C1.51346 38.012 1.91297 38.1176 2.31925 38.116H8.94912L12.3218 43.7987C12.4355 43.9871 12.5755 44.1582 12.7376 44.3069C13.1659 44.7197 13.7368 44.9514 14.3316 44.9538H14.655C15.0037 44.906 15.3369 44.7792 15.6292 44.5831C15.9215 44.3869 16.165 44.1265 16.3413 43.8218L20.7997 36.1524L25.2581 43.8911C25.437 44.1915 25.6817 44.4474 25.9738 44.6394C26.2659 44.8315 26.5978 44.9548 26.9445 45H27.2679C27.8707 45.0036 28.451 44.7715 28.8849 44.3531C29.0403 44.2129 29.1728 44.0492 29.2776 43.868L32.6503 38.1853H39.2802C39.6873 38.1869 40.0875 38.0809 40.4404 37.8781C40.7934 37.6753 41.0864 37.3828 41.29 37.0303C41.5058 36.671 41.6199 36.2597 41.6199 35.8406C41.6199 35.4214 41.5058 35.0102 41.29 34.6509V34.6509ZM14.3085 38.1853L12.2525 34.7433C12.0501 34.4018 11.763 34.1182 11.4191 33.92C11.0752 33.7217 10.6859 33.6154 10.289 33.6114H6.29255L9.59594 27.8824C11.8707 30.0744 14.7377 31.5521 17.8429 32.1329L14.3085 38.1853ZM20.7997 27.7207C18.5153 27.7207 16.2822 27.0433 14.3827 25.7741C12.4833 24.505 11.0029 22.7011 10.1286 20.5905C9.25443 18.48 9.0257 16.1576 9.47137 13.9171C9.91704 11.6765 11.0171 9.61846 12.6324 8.00312C14.2478 6.38778 16.3058 5.28773 18.5464 4.84205C20.7869 4.39638 23.1093 4.62512 25.2198 5.49933C27.3304 6.37355 29.1343 7.85398 30.4035 9.75342C31.6726 11.6529 32.35 13.886 32.35 16.1704C32.35 19.2337 31.1331 22.1716 28.967 24.3377C26.8009 26.5038 23.8631 27.7207 20.7997 27.7207V27.7207ZM31.3105 33.6114C30.9135 33.6154 30.5243 33.7217 30.1804 33.92C29.8364 34.1182 29.5494 34.4018 29.3469 34.7433L27.291 38.1853L23.7797 32.0636C26.874 31.4709 29.7303 29.9945 32.0035 27.8131L35.3069 33.5421L31.3105 33.6114Z" fill="#7059FF"/>
</svg>
