<svg width="273" height="41" viewBox="0 0 273 41" fill="none" xmlns="http://www.w3.org/2000/svg">
<path d="M7.74235 40.9997H0L17.2773 0.000733556H25.3896L43.0371 40.9997H34.9247L30.285 29.8183H16.7644L19.3546 23.2241H27.5524L21.1479 7.82856L7.74235 40.9997ZM80.2413 0.000733556L66.2083 33.3152C64.045 38.4376 60.354 40.9988 55.1356 40.9988C52.7066 40.9988 50.4674 40.3299 48.4179 38.9919V32.9711C50.4294 34.309 52.6401 34.978 55.0502 34.978C57.593 34.978 59.2154 33.965 59.9175 31.939L45.1732 0H53.2572L63.3621 23.7964L72.1577 0L80.2413 0.000733556ZM85.2227 40.9997V0.000733556H103.44C111.752 0.000733556 115.907 3.85196 115.907 11.5549C115.907 19.9073 110.224 24.9631 98.8576 26.7214L97.7759 19.9552C104.607 18.7128 108.023 15.9892 108.023 11.7842C108.023 8.38182 106.334 6.68079 102.956 6.68079H92.7662V40.9993L85.2227 40.9997ZM120.803 40.9997H113.061L130.338 0.000733556H138.451L156.098 40.9997H147.986L143.346 29.8183H129.825L132.416 23.2241H140.613L134.209 7.82856L120.803 40.9997ZM200.503 0.000733556V6.59492H188.833V41H181.29V6.59492H169.619V0.000733556H200.503ZM236.995 0.000733556L222.962 33.3152C220.799 38.4376 217.108 40.9988 211.89 40.9988C209.461 40.9988 207.221 40.3299 205.172 38.9919V32.9711C207.183 34.309 209.394 34.978 211.804 34.978C214.347 34.978 215.969 33.965 216.672 31.939L201.927 0H210.011L220.116 23.7964L228.912 0L236.995 0.000733556ZM241.977 40.9997V0.000733556H260.194C268.506 0.000733556 272.662 3.85196 272.662 11.5549C272.662 19.9073 266.978 24.9631 255.612 26.7214L254.53 19.9552C261.361 18.7128 264.777 15.9892 264.777 11.7842C264.777 8.38182 263.088 6.68079 259.711 6.68079H249.52V40.9993L241.977 40.9997Z" fill="#7059FF"/>
</svg>
