<svg width="71" height="46" viewBox="0 0 71 46" fill="none" xmlns="http://www.w3.org/2000/svg">
<path d="M60.4144 32.6022C60.4144 31.9435 60.4144 31.3887 60.4144 30.7472C61.1545 30.7472 61.8602 30.7472 62.5659 30.7472C65.6124 30.7646 66.6968 29.603 66.5074 26.4305C64.9067 26.4305 63.306 26.4305 61.602 26.4305C61.602 25.3209 61.602 24.2981 61.602 23.2752C61.602 22.2697 61.602 21.2642 61.602 20.224C62.2216 20.224 62.7896 20.224 63.4265 20.224C63.4265 21.6282 63.4265 23.0325 63.4265 24.4888C64.4936 24.4888 65.4747 24.4888 66.5419 24.4888C66.5419 23.4312 66.5763 22.4084 66.5247 21.3855C66.5074 21.1602 66.2493 20.9174 66.0427 20.7441C63.874 18.8717 61.6881 17.0341 59.5193 15.1617C59.1235 14.815 58.7448 14.3989 58.435 13.9655C56.8171 11.7291 55.2163 9.47535 53.6328 7.2216C51.2403 3.82365 48.0045 2.15934 43.8564 2.17668C32.1005 2.19402 20.3275 2.15934 8.55441 2.15934C5.38739 2.15934 3.63176 3.92767 3.63176 7.10025C3.63176 13.7575 3.63176 20.3973 3.63176 27.0546C3.63176 29.603 4.75055 30.7299 7.31514 30.7299C8.51999 30.7299 9.72483 30.7299 10.9813 30.7299C10.9813 31.354 10.9813 31.9261 10.9813 32.5329C9.34617 32.5329 7.6766 32.6889 6.07587 32.4982C3.59734 32.1862 1.79007 29.9151 1.79007 27.384C1.79007 20.5707 1.79007 13.7748 1.79007 6.96156C1.79007 3.1822 4.66448 0.287002 8.43393 0.287002C20.3275 0.287002 32.221 0.269665 44.1318 0.287002C48.6413 0.304338 52.2731 2.19402 54.9581 5.85202C56.6105 8.10577 58.1768 10.3942 59.8119 12.6653C60.1218 13.0987 60.5004 13.4974 60.8963 13.8615C63.2372 15.8899 65.5952 17.8836 67.9361 19.9119C68.177 20.12 68.3663 20.5534 68.3836 20.8828C68.418 23.0845 68.418 25.2862 68.4008 27.488C68.3836 30.2618 66.0771 32.5849 63.3404 32.6022C62.3938 32.6022 61.4471 32.6022 60.4144 32.6022Z" fill="#7059FF"/>
<path d="M14.4753 35.74C12.2894 32.1167 12.5304 29.2735 15.1294 27.1238C17.4358 25.2167 20.4996 25.3381 22.7027 27.4011C25.078 29.6202 25.2329 32.5674 23.0642 35.636C31.4981 35.636 39.8976 35.636 48.3831 35.636C47.1266 34.041 46.4726 32.3074 47.0062 30.2963C47.3676 28.8921 48.1594 27.7652 49.3126 26.9157C51.5846 25.2167 54.5278 25.4248 56.6449 27.4185C58.9685 29.6202 59.1062 32.3594 56.9892 35.6707C61.6192 35.6707 66.1976 35.6707 70.8277 35.6707C70.8277 36.3294 70.8277 36.9015 70.8277 37.5257C47.2299 37.5257 23.6322 37.5257 0 37.5257C0 36.9362 0 36.3814 0 35.74C4.76774 35.74 9.56991 35.74 14.4753 35.74ZM22.7544 31.7179C22.7716 29.3602 21.0848 27.6439 18.7612 27.6265C16.4547 27.6265 14.7507 29.3082 14.7507 31.6139C14.7335 33.9717 16.4203 35.688 18.7439 35.7053C21.0331 35.7053 22.7371 34.0237 22.7544 31.7179ZM52.7034 35.7053C54.9926 35.688 56.6793 33.989 56.6793 31.6833C56.6793 29.3428 54.9753 27.6265 52.6345 27.6439C50.3453 27.6612 48.6585 29.3602 48.6585 31.6659C48.6585 34.0063 50.3625 35.7227 52.7034 35.7053Z" fill="#7059FF"/>
<path d="M36.9027 4.6891C36.9027 8.22575 36.9027 11.6757 36.9027 15.1777C27.0574 15.1777 17.2637 15.1777 7.33236 15.1777C7.33236 14.6403 7.33236 14.1202 7.33236 13.5827C7.33236 11.8317 7.31514 10.0634 7.33236 8.31243C7.36678 6.40542 9.07078 4.67177 10.9469 4.67177C19.4841 4.65443 28.0041 4.67177 36.5412 4.67177C36.6617 4.65443 36.765 4.67177 36.9027 4.6891ZM35.061 6.56145C30.9301 6.56145 26.8681 6.56145 22.8232 6.56145C22.8232 8.84987 22.8232 11.0863 22.8232 13.3053C26.9369 13.3053 30.9817 13.3053 35.061 13.3053C35.061 11.0516 35.061 8.83253 35.061 6.56145ZM9.20847 13.288C13.1672 13.288 17.0228 13.288 20.861 13.288C20.861 10.9996 20.861 8.76318 20.861 6.50944C17.5047 6.50944 14.2344 6.4921 10.9469 6.50944C9.91417 6.50944 9.26011 7.11622 9.22568 8.12173C9.17405 9.83805 9.20847 11.537 9.20847 13.288Z" fill="#7059FF"/>
<path d="M56.4384 15.1795C50.5002 15.1795 44.717 15.1795 38.8649 15.1795C38.8649 11.7122 38.8649 8.24491 38.8649 4.65625C39.2091 4.65625 39.5878 4.65625 39.9664 4.65625C41.8426 4.69092 43.7187 4.60424 45.5776 4.81228C47.9184 5.07232 49.8462 6.25121 51.2748 8.14089C52.996 10.412 54.6483 12.7351 56.4384 15.1795ZM52.7722 13.3245C51.86 12.0763 51.0682 10.9321 50.2248 9.83986C49.7257 9.19841 49.1921 8.53963 48.5725 8.01953C46.2316 6.02583 43.4089 6.5806 40.7066 6.52859C40.7066 8.85168 40.7066 11.0881 40.7066 13.3245C44.717 13.3245 48.6585 13.3245 52.7722 13.3245Z" fill="#7059FF"/>
<path d="M44.3211 31.4043C44.3211 32.0111 44.3211 32.5832 44.3211 33.1726C38.3829 33.1726 32.4964 33.1726 26.541 33.1726C26.541 32.6179 26.541 32.0284 26.541 31.4043C32.4275 31.4043 38.3313 31.4043 44.3211 31.4043Z" fill="#7059FF"/>
<path d="M28.9679 20.1201C28.9679 19.5307 28.9679 18.9586 28.9679 18.3691C31.2055 18.3691 33.4259 18.3691 35.6806 18.3691C35.6806 18.9586 35.6806 19.5134 35.6806 20.1201C33.4775 20.1201 31.2571 20.1201 28.9679 20.1201Z" fill="#7059FF"/>
<path d="M46.1628 18.3496C46.1628 18.9391 46.1628 19.5112 46.1628 20.1179C43.9424 20.1179 41.722 20.1179 39.4673 20.1179C39.4673 19.5458 39.4673 18.9737 39.4673 18.3496C41.7048 18.3496 43.908 18.3496 46.1628 18.3496Z" fill="#7059FF"/>
<path d="M11.6009 45.6043C10.7747 45.6043 10.0174 45.6043 9.22565 45.6043C9.22565 45.0148 9.22565 44.4601 9.22565 43.8359C9.98298 43.8359 10.7747 43.8359 11.6009 43.8359C11.6009 44.408 11.6009 44.9801 11.6009 45.6043Z" fill="#7059FF"/>
<path d="M14.1655 45.6043C14.1655 45.0148 14.1655 44.4601 14.1655 43.8359C14.9401 43.8359 15.7146 43.8359 16.5408 43.8359C16.5408 44.3907 16.5408 44.9801 16.5408 45.6043C15.7662 45.6043 14.9917 45.6043 14.1655 45.6043Z" fill="#7059FF"/>
<path d="M21.4979 43.8359C21.4979 44.4601 21.4979 45.0148 21.4979 45.6043C20.7061 45.6043 19.9488 45.6043 19.1226 45.6043C19.1226 45.0322 19.1226 44.4601 19.1226 43.8359C19.88 43.8359 20.6545 43.8359 21.4979 43.8359Z" fill="#7059FF"/>
<path d="M26.4377 43.8359C26.4377 44.4254 26.4377 44.9975 26.4377 45.5869C25.6288 45.5869 24.8542 45.5869 24.0453 45.5869C24.0453 44.9975 24.0453 44.4427 24.0453 43.8359C24.8026 43.8359 25.5771 43.8359 26.4377 43.8359Z" fill="#7059FF"/>
<path d="M28.9679 43.8184C29.7597 43.8184 30.517 43.8184 31.326 43.8184C31.326 44.3905 31.326 44.9626 31.326 45.5867C30.5686 45.5867 29.7769 45.5867 28.9679 45.5867C28.9679 45.0146 28.9679 44.4425 28.9679 43.8184Z" fill="#7059FF"/>
<path d="M36.283 45.6043C35.4913 45.6043 34.734 45.6043 33.925 45.6043C33.925 45.0322 33.925 44.4601 33.925 43.8359C34.6823 43.8359 35.4741 43.8359 36.283 43.8359C36.283 44.4254 36.283 44.9975 36.283 45.6043Z" fill="#7059FF"/>
<path d="M41.2229 45.6043C40.4312 45.6043 39.6738 45.6043 38.8649 45.6043C38.8649 45.0322 38.8649 44.4601 38.8649 43.8359C39.6222 43.8359 40.414 43.8359 41.2229 43.8359C41.2229 44.4254 41.2229 44.9975 41.2229 45.6043Z" fill="#7059FF"/>
<path d="M46.1455 45.6043C45.3538 45.6043 44.5964 45.6043 43.7875 45.6043C43.7875 45.0322 43.7875 44.4601 43.7875 43.8359C44.5448 43.8359 45.3366 43.8359 46.1455 43.8359C46.1455 44.4254 46.1455 44.9975 46.1455 45.6043Z" fill="#7059FF"/>
<path d="M51.0854 45.6043C50.2937 45.6043 49.5363 45.6043 48.7274 45.6043C48.7274 45.0322 48.7274 44.4601 48.7274 43.8359C49.4847 43.8359 50.2764 43.8359 51.0854 43.8359C51.0854 44.4254 51.0854 44.9975 51.0854 45.6043Z" fill="#7059FF"/>
<path d="M53.6328 43.8184C54.4418 43.8184 55.1991 43.8184 56.0081 43.8184C56.0081 44.4078 56.0081 44.9799 56.0081 45.604C55.2163 45.604 54.4418 45.604 53.6328 45.604C53.6328 45.0146 53.6328 44.4598 53.6328 43.8184Z" fill="#7059FF"/>
<path d="M60.9651 45.604C60.1734 45.604 59.4161 45.604 58.5899 45.604C58.5899 45.0319 58.5899 44.4425 58.5899 43.8184C59.3644 43.8184 60.139 43.8184 60.9651 43.8184C60.9651 44.4078 60.9651 44.9626 60.9651 45.604Z" fill="#7059FF"/>
<path d="M19.0365 30.1233C20.052 30.106 20.9126 30.9381 20.9126 31.961C20.9298 32.9838 20.0865 33.8333 19.0537 33.8333C18.0554 33.8333 17.2292 33.0185 17.212 32.0303C17.1776 31.0075 18.0038 30.1406 19.0365 30.1233Z" fill="#7059FF"/>
<path d="M53.0132 30.1233C54.0287 30.1406 54.8549 31.0075 54.8204 32.0303C54.786 33.0532 53.9254 33.8853 52.8927 33.8333C51.9116 33.7987 51.1026 32.9492 51.1198 31.961C51.137 30.9381 51.9977 30.106 53.0132 30.1233Z" fill="#7059FF"/>
</svg>
