<svg width="32" height="32" viewBox="0 0 32 32" fill="none" xmlns="http://www.w3.org/2000/svg">
<path d="M10.1668 13.3334C10.1668 14.53 9.19678 15.5001 8.00016 15.5001C6.80355 15.5001 5.8335 14.53 5.8335 13.3334C5.8335 12.1368 6.80355 11.1667 8.00016 11.1667C9.19678 11.1667 10.1668 12.1368 10.1668 13.3334Z" stroke="#2A2536"/>
<path d="M15.5003 9.33341C15.5003 10.53 14.5303 11.5001 13.3337 11.5001C12.137 11.5001 11.167 10.53 11.167 9.33341C11.167 8.1368 12.137 7.16675 13.3337 7.16675C14.5303 7.16675 15.5003 8.1368 15.5003 9.33341Z" stroke="#2A2536"/>
<path d="M20.8333 9.33341C20.8333 10.53 19.8633 11.5001 18.6667 11.5001C17.47 11.5001 16.5 10.53 16.5 9.33341C16.5 8.1368 17.47 7.16675 18.6667 7.16675C19.8633 7.16675 20.8333 8.1368 20.8333 9.33341Z" stroke="#2A2536"/>
<path d="M26.1668 13.3334C26.1668 14.53 25.1968 15.5001 24.0002 15.5001C22.8035 15.5001 21.8335 14.53 21.8335 13.3334C21.8335 12.1368 22.8035 11.1667 24.0002 11.1667C25.1968 11.1667 26.1668 12.1368 26.1668 13.3334Z" stroke="#2A2536"/>
<path d="M20.9634 19.5311L20.9759 19.5464L20.9895 19.5606C21.069 19.6435 21.1487 19.7261 21.2283 19.8085C21.8215 20.4231 22.4072 21.0299 22.8438 21.7042C23.3229 22.4441 23.5927 23.2233 23.4707 24.1186C23.2063 25.0495 22.5815 25.9048 21.5264 26.1521C21.4245 26.1708 21.2138 26.1697 20.8554 26.1337C20.5623 26.1042 20.2155 26.057 19.8166 26.0028C19.7406 25.9924 19.6628 25.9818 19.5831 25.9711C18.598 25.8379 17.3659 25.6823 16.0889 25.6823H15.9088C14.6312 25.6823 13.3986 25.8407 12.4139 25.9751C12.3437 25.9847 12.2749 25.9941 12.2076 26.0033C11.7974 26.0596 11.442 26.1084 11.1429 26.138C10.7814 26.1739 10.5728 26.173 10.4751 26.153C9.41649 25.9067 8.79166 25.0593 8.52732 24.1202C8.40987 23.2304 8.68152 22.4534 9.16217 21.7141C9.59953 21.0413 10.1848 20.4349 10.7775 19.8209C10.8577 19.7378 10.938 19.6546 11.0182 19.5711L11.0308 19.5578L11.0425 19.5437C11.6079 18.8604 12.1129 18.2398 12.6312 17.6027C12.9202 17.2475 13.2134 16.8872 13.5234 16.5082C13.9794 15.9622 14.4878 15.487 15.0568 15.2836L15.0569 15.2837L15.0658 15.2803C15.1499 15.2484 15.2318 15.2253 15.3118 15.2102L15.3118 15.2102L15.3169 15.2091C15.5201 15.1684 15.7401 15.1667 16.0088 15.1667C16.2751 15.1667 16.5007 15.1679 16.7013 15.2007C16.7795 15.2159 16.8597 15.2387 16.9419 15.2699L16.9419 15.27L16.9508 15.2732C17.522 15.4774 18.0413 15.9554 18.4825 16.4955L18.4825 16.4955L18.4845 16.4979C19.0476 17.1786 19.5478 17.7934 20.0642 18.428C20.3542 18.7844 20.6492 19.147 20.9634 19.5311Z" stroke="#2A2536"/>
</svg>
