<svg width="32" height="32" viewBox="0 0 32 32" fill="none" xmlns="http://www.w3.org/2000/svg">
<path d="M21.1872 14.47C20.8151 14.9558 20.2422 15.2458 19.6305 15.2584C19.02 15.2424 18.449 14.953 18.0752 14.47" stroke="#2A2536" stroke-linecap="round" stroke-linejoin="round"/>
<path d="M13.9245 14.47C13.5527 14.9554 12.9804 15.2454 12.3691 15.2584C11.7583 15.2424 11.1869 14.953 10.8125 14.47" stroke="#2A2536" stroke-linecap="round" stroke-linejoin="round"/>
<path fill-rule="evenodd" clip-rule="evenodd" d="M15.9998 27.1153C21.0057 27.1129 25.3919 23.7633 26.7122 18.9346C28.2079 18.7716 29.3409 17.5085 29.3409 16.004C29.3409 14.4995 28.2079 13.2364 26.7122 13.0735C25.3953 8.2421 21.0074 4.89014 15.9998 4.89014C10.9922 4.89014 6.60423 8.2421 5.28731 13.0735C3.79166 13.2364 2.65869 14.4995 2.65869 16.004C2.65869 17.5085 3.79166 18.7716 5.28731 18.9346C6.60761 23.7633 10.9938 27.1129 15.9998 27.1153Z" stroke="#2A2536" stroke-linecap="round" stroke-linejoin="round"/>
<path d="M18.9634 20.011C17.2652 21.4926 14.7339 21.4926 13.0356 20.011" stroke="#2A2536" stroke-linecap="round" stroke-linejoin="round"/>
<path d="M14.5181 9.58539C14.9486 9.89944 15.4671 10.0698 16 10.0723C17.4096 10.0403 18.5356 8.88845 18.5356 7.47851C18.5356 6.06858 17.4096 4.91673 16 4.88477" stroke="#2A2536" stroke-linecap="round" stroke-linejoin="round"/>
</svg>
